<?xml version="1.0" encoding="utf-8"?>
<!-- Generator: Adobe Illustrator 19.2.1, SVG Export Plug-In . SVG Version: 6.00 Build 0)  -->
<svg version="1.1" id="Layer_1" xmlns="http://www.w3.org/2000/svg" xmlns:xlink="http://www.w3.org/1999/xlink" x="0px" y="0px"
	 viewBox="0 0 100 100" style="enable-background:new 0 0 100 100;" xml:space="preserve">
<style type="text/css">
	.st0{fill:none;stroke:#2c61b1;stroke-width:2;stroke-linecap:round;stroke-linejoin:round;}
</style>
<g>
	<path class="st0" d="M38.1,46.5v11.9c0,2.5,1.7,5.1,4.3,5.1l0,4.2c0,1.4,1.1,2.6,2.6,2.6l0,0c1.4,0,2.5-1.1,2.5-2.6v-4.2h5.1v4.2
		c0,1.4,1.1,2.6,2.5,2.6l0,0c1.4,0,2.6-1.1,2.6-2.6v-4.2c2.4-0.4,4.2-2.6,4.2-5.1V46.5"/>
	<path class="st0" d="M61.9,39.7c0-6.6-5.3-11.9-11.9-11.9c-6.6,0-11.9,5.3-11.9,11.9H61.9z"/>
	<line class="st0" x1="44.9" y1="35.4" x2="44.9" y2="35.4"/>
	<line class="st0" x1="55.1" y1="35.4" x2="55.1" y2="35.4"/>
	<path class="st0" d="M61.9,56.7c0,1.4,1.1,2.5,2.5,2.5l0,0c1.4,0,2.6-1.1,2.6-2.5v-9.4c0-1.4-0.8-2.5-2.6-2.5H35.5
		c-1.7,0-2.5,1.1-2.5,2.5v9.4c0,1.4,1.1,2.5,2.5,2.5l0,0c1.4,0,2.5-1.1,2.5-2.5"/>
</g>
</svg>
