<?xml version="1.0" encoding="utf-8"?>
<!-- Generator: Adobe Illustrator 19.2.1, SVG Export Plug-In . SVG Version: 6.00 Build 0)  -->
<svg version="1.1" id="Layer_1" xmlns="http://www.w3.org/2000/svg" xmlns:xlink="http://www.w3.org/1999/xlink" x="0px" y="0px"
	 viewBox="0 0 100 100" style="enable-background:new 0 0 100 100;" xml:space="preserve">
<style type="text/css">
	.st0{fill-rule:evenodd;clip-rule:evenodd;fill:none;stroke:#2C61B1;stroke-width:2;stroke-linecap:round;stroke-linejoin:round;}
</style>
<g>
	<path class="st0" d="M48,36.8c0-4.2,3.6-13,11-13C59,30.9,54.7,36.8,48,36.8z"/>
	<path class="st0" d="M68,39.8c-2.7,2.5-5,6.6-5,11c0,4.9,4.3,9,7,9c-1,5.6-7.1,14-13,14c-1.3,0-6.1-2-8-2c-2,0-5.2,2-8,2
		c-4,0-13-9.9-13-23c0-5.3,2.8-12.8,9-15c4.9-1.8,8,2,12,2c3,0,7.9-2.6,12-2C63.6,36.2,66.9,38.3,68,39.8z"/>
</g>
</svg>
