<?xml version="1.0" encoding="utf-8"?>
<!-- Generator: Adobe Illustrator 19.2.1, SVG Export Plug-In . SVG Version: 6.00 Build 0)  -->
<svg version="1.1" id="Layer_1" xmlns="http://www.w3.org/2000/svg" xmlns:xlink="http://www.w3.org/1999/xlink" x="0px" y="0px"
	 viewBox="0 0 100 100" style="enable-background:new 0 0 100 100;" xml:space="preserve">
<style type="text/css">
	.st0{fill:#FFFFFF;}
</style>
<g id="Icons">
	<g id="Color-" transform="translate(-200.000000, -160.000000)">
		<path id="Facebook" class="st0" d="M255.2,224.1h-13.5c-0.9,0-1.6-0.7-1.6-1.6v-25.1c0-0.9,0.7-1.6,1.6-1.6h25.1
			c0.9,0,1.6,0.7,1.6,1.6v25.1c0,0.9-0.7,1.6-1.6,1.6h-7.2v-10.9h3.7l0.5-4.3h-4.2v-2.7c0-1.2,0.3-2.1,2.1-2.1l2.3,0v-3.8
			c-0.4-0.1-1.7-0.2-3.3-0.2c-3.3,0-5.5,2-5.5,5.6v3.1h-3.7v4.3h3.7V224.1L255.2,224.1z"/>
	</g>
</g>
</svg>
