<?xml version="1.0" encoding="utf-8"?>
<!-- Generator: Adobe Illustrator 19.2.1, SVG Export Plug-In . SVG Version: 6.00 Build 0)  -->
<svg version="1.1" id="Layer_1" xmlns="http://www.w3.org/2000/svg" xmlns:xlink="http://www.w3.org/1999/xlink" x="0px" y="0px"
	 viewBox="0 0 100 100" style="enable-background:new 0 0 100 100;" xml:space="preserve">
<style type="text/css">
	.st0{fill:#DC4E41;}
	.st1{fill:#FFFFFF;}
</style>
<path class="st0" d="M38.6,51.9c-0.1,5.5,3.7,10.8,8.9,12.5c4.9,1.7,11,0.4,14.2-3.8c2.4-3,2.9-6.9,2.7-10.6c-4.2,0-8.4,0-12.6,0
	c0,1.5,0,3,0,4.5c2.5,0.1,5,0,7.6,0.1c-0.6,2.2-2.1,4.2-4.3,5c-4.3,1.9-9.7-0.6-11-5c-1.6-4.3,1-9.4,5.4-10.7c2.7-1,5.5,0.1,7.8,1.5
	c1.2-1.1,2.3-2.3,3.4-3.5c-2.6-2.2-6-3.6-9.5-3.3C44.3,38.8,38.3,45.1,38.6,51.9L38.6,51.9z M38.6,51.9"/>
<path class="st0" d="M72.6,46.2"/>
<path class="st1" d="M38.6,51.9c-0.3-6.8,5.7-13.1,12.5-13.2c3.5-0.3,6.9,1.1,9.5,3.3c-1.1,1.2-2.2,2.4-3.4,3.5
	c-2.3-1.4-5.1-2.5-7.8-1.5c-4.4,1.2-7,6.4-5.4,10.7c1.3,4.5,6.8,6.9,11,5c2.2-0.8,3.7-2.8,4.3-5c-2.5-0.1-5,0-7.6-0.1
	c0-1.5,0-3,0-4.5c4.2,0,8.4,0,12.6,0c0.3,3.7-0.3,7.6-2.7,10.6c-3.3,4.2-9.3,5.5-14.2,3.8C42.2,62.7,38.4,57.4,38.6,51.9L38.6,51.9z
	 M38.6,51.9"/>
<path class="st1" d="M72.6,46.2"/>
</svg>
