<?xml version="1.0" encoding="utf-8"?>
<!-- Generator: Adobe Illustrator 20.1.0, SVG Export Plug-In . SVG Version: 6.00 Build 0)  -->
<svg version="1.1" id="Layer_1" xmlns="http://www.w3.org/2000/svg" xmlns:xlink="http://www.w3.org/1999/xlink" x="0px" y="0px"
	 viewBox="0 0 47.7 35.7" style="enable-background:new 0 0 47.7 35.7;" xml:space="preserve">
<style type="text/css">
	.st0{fill:#797979;}
</style>
<g>
	<path class="st0" d="M3.5,18.2C3.4,23.7,7.2,29,12.4,30.7c4.9,1.7,11,0.4,14.2-3.8c2.4-3,2.9-6.9,2.7-10.6c-4.2,0-8.4,0-12.6,0
		c0,1.5,0,3,0,4.5c2.5,0.1,5,0,7.6,0.1c-0.6,2.2-2.1,4.2-4.3,5c-4.3,1.9-9.7-0.6-11-5c-1.6-4.3,1-9.4,5.4-10.7
		c2.7-1,5.5,0.1,7.8,1.5c1.2-1.1,2.3-2.3,3.4-3.5c-2.6-2.2-6-3.6-9.5-3.3C9.2,5.1,3.2,11.4,3.5,18.2L3.5,18.2z M3.5,18.2"/>
	<path class="st0" d="M37.5,12.5c0,1.3,0,2.5,0,3.8c-1.3,0-2.5,0-3.8,0v3.8c1.3,0,2.5,0,3.8,0c0,1.3,0,2.5,0,3.8c1.2,0,2.5,0,3.8,0
		c0-1.3,0-2.5,0-3.8c1.3,0,2.5,0,3.8,0v-3.8c-1.3,0-2.5,0-3.8,0c0-1.3,0-2.5,0-3.8C40,12.5,38.8,12.5,37.5,12.5L37.5,12.5z
		 M37.5,12.5"/>
	<path class="st0" d="M3.5,18.2C3.2,11.4,9.2,5.1,16,5c3.5-0.3,6.9,1.1,9.5,3.3c-1.1,1.2-2.2,2.4-3.4,3.5c-2.3-1.4-5.1-2.5-7.8-1.5
		c-4.4,1.2-7,6.4-5.4,10.7c1.3,4.5,6.8,6.9,11,5c2.2-0.8,3.7-2.8,4.3-5c-2.5-0.1-5,0-7.6-0.1c0-1.5,0-3,0-4.5c4.2,0,8.4,0,12.6,0
		c0.3,3.7-0.3,7.6-2.7,10.6c-3.3,4.2-9.3,5.5-14.2,3.8C7.2,29,3.4,23.7,3.5,18.2L3.5,18.2z M3.5,18.2"/>
	<path class="st0" d="M37.5,12.5h3.8c0,1.3,0,2.5,0,3.8c1.3,0,2.5,0,3.8,0v3.8c-1.3,0-2.5,0-3.8,0c0,1.3,0,2.5,0,3.8
		c-1.3,0-2.5,0-3.8,0c0-1.3,0-2.5,0-3.8c-1.3,0-2.5,0-3.8,0v-3.8c1.3,0,2.5,0,3.8,0C37.5,15.1,37.5,13.8,37.5,12.5L37.5,12.5z
		 M37.5,12.5"/>
</g>
</svg>
