<?xml version="1.0" encoding="utf-8"?>
<!-- Generator: Adobe Illustrator 19.2.1, SVG Export Plug-In . SVG Version: 6.00 Build 0)  -->
<svg version="1.1" id="Layer_1" xmlns="http://www.w3.org/2000/svg" xmlns:xlink="http://www.w3.org/1999/xlink" x="0px" y="0px"
	 viewBox="0 0 217.5 100" style="enable-background:new 0 0 217.5 100;" xml:space="preserve">
<style type="text/css">
	.st0{fill:#FFFFFF;}
</style>
<path class="st0" d="M69.8,32.5"/>
<path class="st0" d="M69.8,32.5"/>
<path class="st0" d="M61.5,70.9h-8.6l-2.5-22.3c-0.4-3.1-0.5-6.2-0.5-6.5c-0.1,0.6-0.7,3.4-1.4,6.3l-7.3,22.5h-7l-7.3-22.5
	c-0.8-2.8-1.4-5.6-1.5-6.3c0,0.3-0.1,3.4-0.3,6.5l-2.5,22.3H14l5.5-39.5h9.9l7.5,23.8c0.4,1.5,0.7,3.5,0.8,3.8
	c0.1-0.3,0.3-2.3,0.8-3.8l7.6-23.8H56L61.5,70.9z"/>
<path class="st0" d="M64.7,57.1c0-8.2,6.3-14.3,14.4-14.3c8.1,0,14.4,6.2,14.4,14.3c0,8.2-6.3,14.3-14.4,14.3
	C71,71.4,64.7,65.2,64.7,57.1z M85.8,57.1c0-4.2-2.7-7.3-6.7-7.3c-4.1,0-6.7,3.1-6.7,7.3c0,4.2,2.8,7.3,6.7,7.3
	C83.1,64.4,85.8,61.3,85.8,57.1z"/>
<path class="st0" d="M99,70.9V28.6h7.9v17.5c2.1-2.3,5-3.4,8-3.4c7.6,0,12,6.9,12,14.3c0,7.4-4.2,14.4-11.9,14.4
	c-3.2,0-6.2-1.6-8.4-4.2v3.6H99z M119.1,57.1c0-4.1-2-7.3-6.2-7.3c-3.7,0-6.1,3-6.1,7.3c0,3.8,2.5,7.4,6.1,7.4
	C117,64.4,119.1,61.1,119.1,57.1z"/>
<path class="st0" d="M136.8,29.6c2.8,0,5.2,2.4,5.2,5.2c0,2.8-2.4,5.2-5.2,5.2c-2.8,0-5.2-2.4-5.2-5.2C131.6,32,134,29.6,136.8,29.6
	z M132.7,70.9V43.3h8.1v27.5H132.7z"/>
<path class="st0" d="M150.6,43.3v-9.8h7.9v9.8h3.9v7.3h-3.9v20.2h-7.9V50.7h-3.8v-7.3H150.6z"/>
<path class="st0" d="M166.2,57.1c0-8.2,6.3-14.3,14.4-14.3c8.1,0,14.4,6.2,14.4,14.3c0,8.2-6.3,14.3-14.4,14.3
	C172.6,71.4,166.2,65.2,166.2,57.1z M187.3,57.1c0-4.2-2.7-7.3-6.7-7.3c-4.1,0-6.7,3.1-6.7,7.3c0,4.2,2.8,7.3,6.7,7.3
	C184.6,64.4,187.3,61.3,187.3,57.1z"/>
<path class="st0" d="M203.4,61c2.8,0,5.2,2.4,5.2,5.2c0,2.8-2.4,5.2-5.2,5.2c-2.8,0-5.2-2.4-5.2-5.2C198.2,63.4,200.5,61,203.4,61z"
	/>
</svg>
