<svg width="210" height="70" xmlns="http://www.w3.org/2000/svg">
 <style type="text/css">.st0{fill:#7298C4;}</style>

 <g>
  <title>background</title>
  <rect fill="none" id="canvas_background" height="72" width="212" y="-1" x="-1"/>
 </g>
 <g>
  <title>Layer 1</title>
  <g id="svg_1">
   <path id="svg_2" d="m60.3,55.8l-8.6,0l-2.5,-22.3c-0.4,-3.1 -0.5,-6.2 -0.5,-6.5c-0.1,0.6 -0.7,3.4 -1.4,6.3l-7.3,22.5l-7,0l-7.3,-22.5c-0.8,-2.8 -1.4,-5.6 -1.5,-6.3c0,0.3 -0.1,3.4 -0.3,6.5l-2.5,22.3l-8.6,0l5.5,-39.5l9.9,0l7.5,23.8c0.4,1.5 0.7,3.5 0.8,3.8c0.1,-0.3 0.3,-2.3 0.8,-3.8l7.6,-23.8l9.9,0l5.5,39.5z" class="st0"/>
   <path id="svg_3" d="m63.6,42c0,-8.2 6.3,-14.3 14.4,-14.3c8.1,0 14.4,6.2 14.4,14.3c0,8.2 -6.3,14.3 -14.4,14.3c-8.1,0 -14.4,-6.1 -14.4,-14.3zm21,0c0,-4.2 -2.7,-7.3 -6.7,-7.3c-4.1,0 -6.7,3.1 -6.7,7.3c0,4.2 2.8,7.3 6.7,7.3c4,0 6.7,-3.1 6.7,-7.3z" class="st0"/>
   <path id="svg_4" d="m97.9,55.8l0,-42.3l7.9,0l0,17.5c2.1,-2.3 5,-3.4 8,-3.4c7.6,0 12,6.9 12,14.3c0,7.4 -4.2,14.4 -11.9,14.4c-3.2,0 -6.2,-1.6 -8.4,-4.2l0,3.6l-7.6,0l0,0.1zm20,-13.8c0,-4.1 -2,-7.3 -6.2,-7.3c-3.7,0 -6.1,3 -6.1,7.3c0,3.8 2.5,7.4 6.1,7.4c4.1,0 6.2,-3.4 6.2,-7.4z" class="st0"/>
   <path id="svg_5" d="m135.7,14.6c2.8,0 5.2,2.4 5.2,5.2c0,2.8 -2.4,5.2 -5.2,5.2s-5.2,-2.4 -5.2,-5.2c0,-2.9 2.3,-5.2 5.2,-5.2zm-4.2,41.2l0,-27.5l8.1,0l0,27.5l-8.1,0z" class="st0"/>
   <path id="svg_6" d="m149.4,28.3l0,-9.8l7.9,0l0,9.8l3.9,0l0,7.3l-3.9,0l0,20.2l-7.9,0l0,-20.2l-3.8,0l0,-7.3l3.8,0z" class="st0"/>
   <path id="svg_7" d="m165.1,42c0,-8.2 6.3,-14.3 14.4,-14.3s14.4,6.2 14.4,14.3c0,8.2 -6.3,14.3 -14.4,14.3s-14.4,-6.1 -14.4,-14.3zm21,0c0,-4.2 -2.7,-7.3 -6.7,-7.3c-4.1,0 -6.7,3.1 -6.7,7.3c0,4.2 2.8,7.3 6.7,7.3c4.1,0 6.7,-3.1 6.7,-7.3z" class="st0"/>
   <path id="svg_8" d="m202.2,45.9c2.8,0 5.2,2.4 5.2,5.2s-2.4,5.2 -5.2,5.2s-5.2,-2.4 -5.2,-5.2s2.4,-5.2 5.2,-5.2z" class="st0"/>
  </g>
 </g>
</svg>