<?xml version="1.0" encoding="utf-8"?>
<!-- Generator: Adobe Illustrator 19.2.1, SVG Export Plug-In . SVG Version: 6.00 Build 0)  -->
<svg version="1.1" id="Layer_1" xmlns="http://www.w3.org/2000/svg" xmlns:xlink="http://www.w3.org/1999/xlink" x="0px" y="0px"
	 viewBox="0 0 214.5 320" style="enable-background:new 0 0 214.5 320;" xml:space="preserve">
<style type="text/css">
	.st0{fill:#4D84C4;stroke:#384B6E;stroke-width:4;stroke-miterlimit:10;}
	.st1{fill:#FFFFFF;stroke:#384B6E;stroke-width:4;stroke-miterlimit:10;}
	.st2{fill:#FFFFFF;stroke:#384B6E;stroke-width:4;stroke-linecap:round;stroke-miterlimit:10;}
	.st3{opacity:6.000000e-02;fill:#343B45;}
	.st4{fill:#FFFFFF;stroke:#454D5A;stroke-width:5;stroke-miterlimit:10;}
	.st5{fill:#4C8CCA;}
	.st6{fill:#4C8CCA;stroke:#384B6E;stroke-width:3;stroke-miterlimit:10;}
	.st7{opacity:0.18;fill:#FFFFFF;stroke:#454D5A;stroke-width:5;stroke-linecap:round;stroke-miterlimit:10;}
	.st8{fill:#FFFFFF;stroke:#454D5A;stroke-width:5;stroke-linecap:round;stroke-miterlimit:10;}
	.st9{opacity:0.1;}
	.st10{fill:#343B45;}
</style>
<g>
	<polygon class="st0" points="64.5,259.1 127.8,290.1 188.2,256.8 127.6,228.5 	"/>
	<line class="st0" x1="63.2" y1="259.1" x2="63.2" y2="314.1"/>
	<line class="st0" x1="189.5" y1="257.1" x2="189.5" y2="317.1"/>
	<line class="st0" x1="127.6" y1="290.1" x2="127.6" y2="308.5"/>
	<path class="st1" d="M99.5,273.8v-40c0,0-19.3-6.7-24-12.3c-4.7-5.7,91-78.3,91-78.3l12.3,15c0,0,6.3,5.3,4,26.7
		s-8.7,32.7-8.7,32.7s-5.8,12.8-17.7,15.7v40.7l-28.7,16.3L99.5,273.8z"/>
	<path class="st2" d="M111.7,233.3c0,0-7.2,2.4-12.2,0.5"/>
	<path class="st2" d="M146.6,233.9c0,0,1.6,0.3,9.9-0.8"/>
	<path class="st2" d="M109.3,216.6c0,0,5.5-26.6,32-27.6"/>
	<polygon class="st3" points="109.2,233.9 178.8,158.1 163.8,143.2 76.3,219.8 83.3,226.6 	"/>
	<polyline class="st3" points="100.8,259.3 125.3,274.1 156.5,259.1 156.5,273.8 127.8,290.1 99.5,273.8 100.8,259.3 	"/>
	<path class="st4" d="M122.8,71.3l-98.3,93.3c-4,3.8-4.2,10.1-0.4,14.1l47.5,50c3.8,4,10.1,4.2,14.1,0.4l98.3-93.3
		c4-3.8,4.2-10.1,0.4-14.1l-47.5-50C133.1,67.7,126.8,67.5,122.8,71.3z"/>
	<path class="st5" d="M121.5,85.8L53.9,150c-4,3.8-4.2,10.1-0.4,14.1l34.3,36.1c3.8,4,10.1,4.2,14.1,0.4l67.7-64.2
		c4-3.8,4.2-10.1,0.4-14.1l-34.3-36.1C131.9,82.1,125.5,82,121.5,85.8z"/>
	<circle class="st6" cx="59.3" cy="191.8" r="7"/>
	<polygon class="st7" points="108.7,20.2 109.3,21.5 110.7,21.7 109.7,22.6 109.9,24 108.7,23.3 107.5,24 107.7,22.6 106.8,21.7 
		108.1,21.5 	"/>
	<g>
		<line class="st8" x1="127.5" y1="14.8" x2="127.5" y2="56.1"/>
		<line class="st8" x1="148.8" y1="35.5" x2="141.5" y2="58.5"/>
		<line class="st8" x1="102.9" y1="37.2" x2="114.6" y2="60.2"/>
		<polygon class="st7" points="161.4,46.9 161.5,47.1 161.8,47.2 161.6,47.4 161.7,47.7 161.4,47.6 161.1,47.7 161.2,47.4 
			160.9,47.2 161.2,47.1 		"/>
	</g>
	<g class="st9">
		<path class="st10" d="M46.3,134.9l4.8,1.8c-3.2,3.4-3.2,3.4-4,9.4l13.7,16.6c3.4,3.2,8.9,2.9,12-0.5l1.5-1.7
			c3.2-3.4,2.9-8.9-0.5-12l-15.5-14.2C54.8,131.2,49.4,131.5,46.3,134.9z"/>
		<path class="st10" d="M57.5,116.1l-1.6,1.7c-3.2,3.4-2.9,8.9,0.5,12l30.5,27.9c3.4,3.2,8.9,2.9,12-0.5l1.6-1.7
			c3.2-3.4,2.9-8.9-0.5-12l-30.5-27.9C66,112.4,60.6,112.7,57.5,116.1z"/>
		<path class="st10" d="M72.5,99.7l-1.6,1.7c-3.2,3.4-2.9,8.9,0.5,12l30.5,27.9c3.4,3.2,8.9,2.9,12-0.5l1.6-1.7
			c3.2-3.4,2.9-8.9-0.5-12L84.5,99.2C81.1,96,75.7,96.2,72.5,99.7z"/>
		<path class="st10" d="M93,90.7l-1.5,1.7c-3.2,3.4-2.9,8.9,0.5,12l19.9,18.2c3.4,3.2,8.9,2.9,12-0.5l1.5-1.7
			c3.2-3.4,2.9-8.9-0.5-12L105,90.1C101.6,87,96.2,87.2,93,90.7z"/>
	</g>
	<g>
		<path class="st1" d="M48.2,130.2L48.2,130.2c-3.2,3.4-2.9,8.9,0.5,12l12.2,11.1c3.4,3.2,8.9,2.9,12-0.5h0c3.2-3.4,2.9-8.9-0.5-12
			l-12.2-11.1C56.8,126.5,51.4,126.7,48.2,130.2z"/>
		<path class="st1" d="M58.1,113.6L58.1,113.6c-3.2,3.5-3,8.9,0.5,12.1L84.1,149c3.4,3.2,8.9,2.9,12-0.5l0,0c3.2-3.4,2.9-8.9-0.5-12
			l-25.4-23.3C66.7,109.9,61.3,110.2,58.1,113.6z"/>
		<path class="st1" d="M71.4,99.1L71.4,99.1c-3.2,3.5-3,8.9,0.5,12.1l25.4,23.3c3.4,3.2,8.9,2.9,12-0.5l0,0c3.2-3.4,2.9-8.9-0.5-12
			L83.4,98.6C80,95.4,74.6,95.6,71.4,99.1z"/>
		<path class="st1" d="M89.5,91.1L89.5,91.1c-3.2,3.4-2.9,8.9,0.5,12l16.1,14.7c3.4,3.2,8.9,2.9,12-0.5l0,0c3.2-3.4,2.9-8.9-0.5-12
			l-16.1-14.7C98.1,87.4,92.7,87.7,89.5,91.1z"/>
	</g>
</g>
</svg>
