<?xml version="1.0" encoding="utf-8"?>
<!-- Generator: Adobe Illustrator 19.2.1, SVG Export Plug-In . SVG Version: 6.00 Build 0)  -->
<svg version="1.1" id="Layer_1" xmlns="http://www.w3.org/2000/svg" xmlns:xlink="http://www.w3.org/1999/xlink" x="0px" y="0px"
	 viewBox="0 0 100 100" style="enable-background:new 0 0 100 100;" xml:space="preserve">
<style type="text/css">
	.st0{fill:none;stroke:#FFFFFF;stroke-width:2;stroke-linecap:round;stroke-linejoin:round;}
</style>
<path class="st0" d="M55.8,63.4H44.2c-4.4,0-8-3.6-8-8V43.9c0-4.4,3.6-8,8-8h11.5c4.4,0,8,3.6,8,8v11.5
	C63.8,59.8,60.2,63.4,55.8,63.4z"/>
<line class="st0" x1="63.8" y1="45.2" x2="72.3" y2="45.2"/>
<line class="st0" x1="63.8" y1="53.9" x2="72.3" y2="53.9"/>
<line class="st0" x1="45.6" y1="35.9" x2="45.6" y2="27.3"/>
<line class="st0" x1="54.4" y1="35.9" x2="54.4" y2="27.3"/>
<line class="st0" x1="45.6" y1="72.7" x2="45.6" y2="64.1"/>
<line class="st0" x1="54.4" y1="72.7" x2="54.4" y2="64.1"/>
<line class="st0" x1="27.7" y1="45.3" x2="36.2" y2="45.3"/>
<line class="st0" x1="27.7" y1="54" x2="36.2" y2="54"/>
</svg>
