<?xml version="1.0" encoding="utf-8"?>
<!-- Generator: Adobe Illustrator 19.2.1, SVG Export Plug-In . SVG Version: 6.00 Build 0)  -->
<svg version="1.1" id="Layer_1" xmlns="http://www.w3.org/2000/svg" xmlns:xlink="http://www.w3.org/1999/xlink" x="0px" y="0px"
	 viewBox="0 0 221.2 100" style="enable-background:new 0 0 221.2 100;" xml:space="preserve">
<style type="text/css">
	.st0{fill:#2DA5B2;}
</style>
<path class="st0" d="M59.4,70.6c0,0-1.5,2.3-4.2,2.3c-2.4,0-4.5-1.6-5-3.9l-9.9-30.2c-0.1-0.3-0.2-0.6-0.3-1l0,0l0,0
	c0-0.4-0.1-0.7-0.1-1.1c0-2.8,2.3-5.1,5.1-5.1c0.4,0,0.8,0,1.2,0.1l0,0l30.1,5c0.8,0.1,0.8,0.1,1.2,0.2l0,0l0,0
	c2.1,0.6,3.7,2.6,3.7,4.9c0,1.1-0.3,2.1-0.9,2.9l0,0l0,0L59.4,70.6z"/>
<g>
	<path class="st0" d="M115.1,54.6c0,2.7-1,5-3,6.9h-4c2.5-2.6,3.7-5,3.7-7v-1.9c0-1.4-0.6-2.1-1.7-2.1c-1.2,0-1.8,0.6-1.8,1.7v4.4
		h-3.3v-4.4c0-1.2-0.6-1.7-1.9-1.7c-1.1,0-1.7,0.7-1.7,2.1v2c0,1.9,1.3,4.2,3.8,6.9h-4c-2.1-1.8-3.1-4.1-3.1-6.9v-1.1
		c0-2.7,1-5,2.9-6.7c1.9-1.7,5.4-2.5,10.7-2.5v2.5c-4.9,0-7.9,0.6-9.1,2c2-0.5,3.4-0.2,4.2,1c0.9-1,2-1.5,3.2-1.5
		c3.5,0,5.3,1.8,5.3,5.4V54.6z"/>
	<path class="st0" d="M130.1,56.7c0,3.4-1.8,5.1-5.4,5.1c-3.5,0-5.3-1.7-5.3-5.2l0.4-2.8h3.6l-0.6,3.4c0,1.4,0.7,2.2,2,2.2
		c1.5,0,2.2-0.7,2.2-2.2V48c0-0.9-0.6-1.3-1.9-1.3c-1,0-1.5,0.6-1.5,1.7l0.3,2.6h-3.4l-0.2-2.6c0-2.8,1.6-4.2,4.9-4.2
		c3.3,0,4.9,1.3,4.9,4V56.7z"/>
	<path class="st0" d="M145.6,56.5c0,3.5-1.8,5.3-5.4,5.3c-3.5,0-5.3-2-5.3-6.1V44.4h3.2v12.2c0,1.8,0.7,2.7,2.1,2.7
		c1.5,0,2.2-0.7,2.2-2.1V56c0-1.1-0.4-2-1.2-2.8c-0.8-0.8-1.2-1.9-1.2-3.1l0.5-2.5h3.5l-0.9,2.7c0,0.9,0.4,1.7,1.3,2.4
		s1.3,1.9,1.3,3.5V56.5z"/>
	<path class="st0" d="M160.7,56.9c0,3.3-1.7,4.9-5.2,4.9c-3.7,0-5.6-1.7-5.6-5.1l0.1-2.1h3.3l-0.2,2.2c0,1.7,0.7,2.6,2.2,2.6
		c1.3,0,2-0.9,2-2.6v-0.6c0-1.2-0.3-1.8-1-1.8h-1.8v-2.7h0.8c1.2,0,1.8-0.6,1.8-1.8c0-0.8-0.7-1.5-2-2s-2-1.6-2-3.4h3.6
		c0,1.1,0.6,2.1,1.8,2.9c1.2,0.9,1.8,1.7,1.8,2.4c0,1.3-0.8,2.4-2.3,3.1c1.7,0.5,2.5,1.8,2.5,3.7V56.9z"/>
	<path class="st0" d="M181.4,54.3c0,2.7-1,5.1-2.9,7.2h-3.8c2.3-2.7,3.4-5.1,3.4-7.2v-5.2c0-1.6-0.6-2.4-1.8-2.4
		c-0.9,0-1.4,0.5-1.4,1.6v7.4h-3.3v-7.4c0-1-0.6-1.5-1.8-1.5c-1,0-1.5,0.8-1.5,2.4v5.2c0,2.1,1,4.5,3,7.2h-3.7
		c-1.8-2.1-2.6-4.5-2.6-7.2v-4.4c0-3.8,1.7-5.7,5-5.7c1.4,0,2.4,0.5,3.3,1.5c0.8-1,1.8-1.5,3-1.5c3.4,0,5.1,1.9,5.1,5.7V54.3z"/>
</g>
<path class="st0" d="M83.8,72.8L83.8,72.8L83.8,72.8c0.4,0,0.9-0.1,1.3-0.3c0.9-0.6,1.3-1.6,1-2.6l0,0l0,0c-0.1-0.2-0.1-0.2-0.2-0.5
	l-5.2-12.5l0,0c-0.1-0.2-0.1-0.3-0.2-0.5c-0.7-1.1-2.1-1.4-3.1-0.7c-0.1,0.1-0.3,0.2-0.4,0.3l0,0l0,0c-0.1,0.1-0.2,0.2-0.3,0.4
	L71,63.1l-3.4,4c-0.7,0.7-0.9,1.9-0.3,2.8c0.4,0.7,1.1,1,1.8,1.1l0,0"/>
</svg>
