<?xml version="1.0" encoding="utf-8"?>
<!-- Generator: Adobe Illustrator 19.2.1, SVG Export Plug-In . SVG Version: 6.00 Build 0)  -->
<svg version="1.1" id="Layer_1" xmlns="http://www.w3.org/2000/svg" xmlns:xlink="http://www.w3.org/1999/xlink" x="0px" y="0px"
	 viewBox="0 0 100 100" style="enable-background:new 0 0 100 100;" xml:space="preserve">
<style type="text/css">
	.st0{fill:none;stroke:#2c61b1;stroke-width:2;stroke-linecap:round;stroke-linejoin:round;}
	.st1{display:none;fill:none;stroke:#FFFFFF;stroke-width:2;stroke-linecap:round;stroke-linejoin:round;}
	.st2{display:none;}
	.st3{display:inline;fill:none;stroke:#FFFFFF;stroke-width:2;stroke-linecap:round;stroke-linejoin:round;}

		.st4{display:inline;fill-rule:evenodd;clip-rule:evenodd;fill:none;stroke:#FFFFFF;stroke-width:2;stroke-linecap:round;stroke-linejoin:round;}
	.st5{display:inline;fill:#FFFFFF;stroke:#FFFFFF;stroke-width:2;stroke-linecap:round;stroke-linejoin:round;}
</style>
<g>
	<g>
		<circle class="st0" cx="50" cy="61.7" r="0.8"/>
		<path class="st0" d="M63.6,62.5c0,4.4-3.6,8-8,8H44.4c-4.4,0-8-3.6-8-8v-24c0-4.4,3.6-8,8-8h11.2c4.4,0,8,3.6,8,8V62.5z"/>
	</g>
	<path class="st1" d="M40.1,40.7C32,48.8,26,61.5,33.3,68.8c0.6,0.6,2.6,2.1,5.2,1.6c3-0.7,11.6-7.6,6.4-12.7
		c-3.2-3.1-3.5-1.6-4.1-2.2c-1.2-1.1,0.6-5.4,4.7-9.5c4.1-4.1,8.4-5.8,9.5-4.6c0.6,0.6-1.2,1.2,2,4.3c5.2,5.2,12.3-3.5,13-6.5
		c0.6-2.6-1.1-4.8-1.7-5.4C60.9,26.5,48.3,32.5,40.1,40.7z"/>
	<path class="st1" d="M61.2,32.1H38.8c-4.4,0-8,3.6-8,8v13.6c0,4.4,3.6,8,8,8h11.6c2.4,1.2,2.8,4.8,2.8,7.2c3.2,0,5.2-4.8,5.2-7.2
		h2.8c4.4,0,8-3.6,8-8V40.1C69.2,35.7,65.6,32.1,61.2,32.1z"/>
	<path class="st1" d="M61.2,32.1H38.8c-4.4,0-8,3.6-8,8v15.2c0,4.4,3.6,8,8,8h6.4l4.8,5.6l4.8-5.6h6.4c4.4,0,8-3.6,8-8V40.1
		C69.2,35.7,65.6,32.1,61.2,32.1z"/>
	<path class="st1" d="M37,61.5c-4.3-3.3-7-8-7-13.4c0-9.7,9-17.6,20-17.6c11,0,20,7.9,20,17.6s-9,17.6-20,17.6
		c-1.7,0-3.3-0.2-4.9-0.5c-1.5,1.9-6.8,5.3-9.5,5.3C37.1,68.6,38.1,63.6,37,61.5z"/>
	<g class="st2">
		<circle class="st0" cx="59.6" cy="47.3" r="0.8"/>
		<circle class="st0" cx="50" cy="47.3" r="0.8"/>
		<circle class="st0" cx="40.4" cy="47.3" r="0.8"/>
	</g>
	<g class="st2">
		<line class="st3" x1="37.2" y1="58.5" x2="56.4" y2="58.5"/>
		<line class="st3" x1="37.2" y1="52.1" x2="46.8" y2="52.1"/>
		<path class="st3" d="M70,59.3c0,4.4-3.6,8-8,8H38c-4.4,0-8-3.6-8-8V41.7c0-4.4,3.6-8,8-8h24c4.4,0,8,3.6,8,8V59.3z"/>
		<rect x="56.4" y="40.9" class="st4" width="6.4" height="6.4"/>
	</g>
	<g class="st2">
		<path class="st3" d="M70,42.5c-2.4,3.6-14.4,12-20,12s-17.6-8.4-20-12"/>
		<path class="st3" d="M70,58.5c0,4.4-3.6,8-8,8H38c-4.4,0-8-3.6-8-8v-16c0-4.4,3.6-8,8-8h24c4.4,0,8,3.6,8,8V58.5z"/>
	</g>
	<g class="st2">
		<path class="st3" d="M70,58.5c0,4.4-3.6,8-8,8H38c-4.4,0-8-3.6-8-8v-16c0-4.4,3.6-8,8-8h24c4.4,0,8,3.6,8,8V58.5z"/>
		<polyline class="st3" points="70,42.5 50,53.7 30,42.5 		"/>
		<line class="st3" x1="43.6" y1="50.9" x2="30" y2="58.5"/>
		<line class="st3" x1="70" y1="58.5" x2="56.4" y2="50.9"/>
	</g>
	<g class="st2">
		<polygon class="st3" points="50,32.1 30,44.9 30,70.5 70,70.5 70,44.9 		"/>
		<polyline class="st3" points="70,70.5 50,53.7 30,70.5 		"/>
		<line class="st3" x1="44.8" y1="57.3" x2="30" y2="44.9"/>
		<line class="st3" x1="70" y1="44.9" x2="55.2" y2="57.3"/>
	</g>
	<polygon class="st1" points="30,44.1 50,31.3 70,44.1 70,69.7 30,69.7 	"/>
	<g class="st2">
		<path class="st3" d="M58.3,33.7h2.9c4.4,0,8,3.6,8,8v20.8c0,4.4-3.6,8-8,8H38.8c-4.4,0-8-3.6-8-8v-24c0-4.4,3.6-8,8-8h12.8
			c4.4,0,8,3.6,8,8v18.4h9.2"/>
		<line class="st3" x1="59.6" y1="45.7" x2="68.4" y2="45.7"/>
	</g>
	<g class="st2">
		<line class="st3" x1="54.8" y1="58.5" x2="61.2" y2="58.5"/>
		<line class="st3" x1="54.8" y1="52.1" x2="61.2" y2="52.1"/>
		<line class="st3" x1="54.8" y1="45.7" x2="59.6" y2="45.7"/>
		<path class="st5" d="M45.2,48.9c0,1.3-1.1,2.4-2.4,2.4c-1.3,0-2.4-1.1-2.4-2.4c0-1.3,1-2.4,2.4-2.4S45.2,47.6,45.2,48.9z"/>
		<path class="st5" d="M46.8,58.5h-8c0-3.6,4-6.4,4-6.4S46.8,54.9,46.8,58.5z"/>
		<path class="st3" d="M62,34.5L62,34.5c4.4,0,8,3.6,8,8v16c0,4.4-3.6,8-8,8H38c-4.4,0-8-3.6-8-8v-16c0-4.4,3.6-8,8-8l0,0v1.6
			c0,1.3,1.2,2.4,3.2,2.4s3.2-1.1,3.2-2.4v-1.6h11.2v1.6c0,1.3,1.2,2.4,3.2,2.4s3.2-1.1,3.2-2.4V34.5z"/>
	</g>
	<g class="st2">
		<path class="st4" d="M34.8,66.5c0-8.8,6.4-14.4,15.2-14.4c8.8,0,15.2,5.6,15.2,14.4"/>
		<circle class="st4" cx="50" cy="43.3" r="8.8"/>
	</g>
	<g class="st2">
		<path class="st3" d="M37.2,65.7c0,0,1.1-3.7,4-4.8c2.1-0.8,4.3-0.3,5.6-1.6v-1.6c-0.8-0.8-2.4-2.4-3.2-4c0-0.8-0.8-3.2-0.8-3.2
			C42,47.3,41.2,39.3,50,39.3s8,8,7.2,11.2c0,0-0.8,2.4-0.8,3.2c-0.8,1.6-2.4,3.2-3.2,4v1.6c1.3,1.3,3.5,0.8,5.6,1.6
			c2.9,1.1,4,4.8,4,4.8"/>
		<circle class="st3" cx="50" cy="50.5" r="20"/>
	</g>
	<path class="st1" d="M34.8,67.3v-2.6c0-4,4.7-7.7,10.5-8.8c-2.9-2.9-4.3-6.6-4.3-9.9c0-2.6,0-3.3,0-5.1c0-2.9,3.6-7.3,9-7.3
		c5.4,0,9,4.4,9,7.3c0,1.8,0,2.6,0,5.1c0,3.3-1.4,6.9-4.3,9.9c5.8,1.1,10.5,4.7,10.5,8.8v2.6H34.8z"/>
</g>
</svg>
