<?xml version="1.0" encoding="utf-8"?>
<!-- Generator: Adobe Illustrator 19.2.1, SVG Export Plug-In . SVG Version: 6.00 Build 0)  -->
<svg version="1.1" id="Layer_1" xmlns="http://www.w3.org/2000/svg" xmlns:xlink="http://www.w3.org/1999/xlink" x="0px" y="0px"
	 viewBox="0 0 145.5 100" style="enable-background:new 0 0 145.5 100;" xml:space="preserve">
<style type="text/css">
	.st0{fill:#fff;}
	.st1{fill:#FFFFFF;}
	.st2{fill:#fff;}
</style>
<path class="st0" d="M72.6,46.2"/>
<path class="st1" d="M72.6,46.2"/>
<g>
	<path class="st2" d="M112.2,66.1c-7.2,0-10.8-4.6-13.5-7.9c-2.6-3.2-3.8-4.5-6.3-4.5c-2.5,0-3.7,1.2-6.3,4.5
		c-2.7,3.3-6.3,7.9-13.5,7.9c-7.2,0-10.8-4.6-13.5-7.9c-2.6-3.2-3.8-4.5-6.3-4.5c-2.5,0-3.7,1.2-6.3,4.5c-2.7,3.3-6.3,7.9-13.5,7.9
		c-7.2,0-10.8-4.6-13.5-7.9c-2.6-3.2-3.8-4.5-6.3-4.5c-2.6,0-4.6-2.1-4.6-4.6c0-2.6,2.1-4.6,4.6-4.6c7.2,0,10.8,4.6,13.5,7.9
		c2.6,3.2,3.8,4.5,6.3,4.5c2.5,0,3.7-1.2,6.3-4.5c2.7-3.3,6.3-7.9,13.5-7.9c7.2,0,10.8,4.6,13.5,7.9c2.6,3.2,3.8,4.5,6.3,4.5
		c2.5,0,3.7-1.2,6.3-4.5c2.7-3.4,6.3-7.9,13.5-7.9c7.2,0,10.8,4.6,13.5,7.9c2.6,3.2,3.8,4.5,6.3,4.5c2.5,0,3.7-1.2,6.3-4.5
		c2.7-3.4,6.3-7.9,13.5-7.9c2.6,0,4.6,2.1,4.6,4.6c0,2.6-2.1,4.6-4.6,4.6c-2.5,0-3.7,1.2-6.3,4.5C123.1,61.5,119.4,66.1,112.2,66.1z
		"/>
</g>
</svg>
